<?xml version="1.0" encoding="utf-8"?>
<!-- Generator: Adobe Illustrator 24.0.1, SVG Export Plug-In . SVG Version: 6.00 Build 0)  -->
<svg version="1.1" id="Layer_1" xmlns="http://www.w3.org/2000/svg" xmlns:xlink="http://www.w3.org/1999/xlink" x="0px" y="0px"
	 width="170px" height="60px" viewBox="0 0 170 60" enable-background="new 0 0 170 60" xml:space="preserve">
<g>
	<g>
		<path fill="#00AEEF" d="M39,42.5V34l11-16.5H39.5l-5.6,9.1l-5.4-9.1h-11l11,16.5v8.5H39z M63.8,43.5c10.3,0,17.3-4.8,17.3-13.5
			c0-8.7-7-13.5-17.3-13.5c-10.3,0-17.3,4.8-17.3,13.5C46.5,38.7,53.5,43.5,63.8,43.5z M63.8,24.2c4.4,0,7,2.2,7,5.8
			c0,3.6-2.6,5.8-7,5.8c-4.4,0-7-2.2-7-5.8C56.8,26.4,59.4,24.2,63.8,24.2z M113.7,26.5c0-6.3-5.6-9-12.7-9H82.5v25h10v-7H97l6,7h11
			l-6.4-7.9C111.2,33.3,113.7,30.6,113.7,26.5z M100,29.5h-7.5V24h7.5c2,0,3.4,0.9,3.4,2.8C103.4,28.7,102,29.5,100,29.5z
			 M135.5,42.5H147l-10.6-14.9l10.1-10.1H135l-9.5,9.6l0-9.6h-10v25h10l0-5l3.9-3.8L135.5,42.5z M170,42.5v-25h-10
			c-1.4,2.5-4.1,3.7-7.6,4.2v7.6c2.7-0.5,5.5-1.2,7.6-2.3v15.5H170z M160,46.5V50H10V10h150v3.5h10L170,0H0l0,60h170l0-13.5H160z"/>
	</g>
</g>
</svg>
